<svg width="35" height="32" viewBox="0 0 35 32" fill="none" xmlns="http://www.w3.org/2000/svg">
<path d="M23.1751 27.5737C23.1751 29.3643 24.6267 30.8159 26.4173 30.8159C28.2079 30.8159 29.6595 29.3643 29.6595 27.5737C29.6595 25.7831 28.2079 24.3315 26.4173 24.3315H10.8017C9.99494 24.3315 9.31096 23.7383 9.19687 22.9397M28.0384 19.4682H8.70095L6.15351 1.63611H2.10075M13.4485 4.87831H32.9017L29.6595 14.6049M16.6907 27.5737C16.6907 29.3643 15.2391 30.8159 13.4485 30.8159C11.6578 30.8159 10.2063 29.3643 10.2063 27.5737C10.2063 25.7831 11.6578 24.3315 13.4485 24.3315C15.2391 24.3315 16.6907 25.7831 16.6907 27.5737Z" stroke="#262525" stroke-width="2.36013" stroke-linecap="round" stroke-linejoin="round"/>
</svg>
